<?xml version="1.0" encoding="utf-8"?>
<!-- Generator: Adobe Illustrator 24.1.0, SVG Export Plug-In . SVG Version: 6.00 Build 0)  -->
<svg version="1.1" id="Ebene_1" xmlns="http://www.w3.org/2000/svg" xmlns:xlink="http://www.w3.org/1999/xlink" x="0px" y="0px"
	 viewBox="0 0 800 200" style="enable-background:new 0 0 800 200;" xml:space="preserve">
<style type="text/css">
	.st0{clip-path:url(#SVGID_2_);fill:#FFD32A;}
	.st1{clip-path:url(#SVGID_4_);}
	.st2{fill:#FFFFFF;}
	.st3{clip-path:url(#SVGID_6_);}
	.st4{clip-path:url(#SVGID_8_);}
	.st5{clip-path:url(#SVGID_10_);}
</style>
<g id="Ebene_3">
	<g>
		<g>
			<defs>
				<rect id="SVGID_1_" width="800" height="200"/>
			</defs>
			<clipPath id="SVGID_2_">
				<use xlink:href="#SVGID_1_"  style="overflow:visible;"/>
			</clipPath>
			<rect class="st0" width="800" height="200"/>
		</g>
		<g>
			<defs>
				<rect id="SVGID_3_" width="800" height="200"/>
			</defs>
			<clipPath id="SVGID_4_">
				<use xlink:href="#SVGID_3_"  style="overflow:visible;"/>
			</clipPath>
			<g class="st1">
				<g>
					<path class="st2" d="M525.4,29c-12.4-3.1-24.7-6.1-37.4-7.8c-10.1-1.3-25.6-3.6-33,5.4c-17.7,21.5,16.2,36.7,32.1,42.1
						c19.7,6.7,39.7,14.5,60.3,18.2c10.7,1.9,23.9,3.6,33.8-2.3c8.4-5,12.4-15.4,6.9-23.9c-6.8-10.6-20.6-16.5-31.6-21.2
						C546.6,35.3,536.1,31.1,525.4,29c-5.7-1.1-8.1,7.5-2.4,8.7c7.4,1.5,14.7,4.1,21.7,6.8c10.1,3.7,20.4,8.1,29.1,14.5
						c5.4,4,11.1,9.6,5.4,15.9c-5.8,6.4-17.5,5.2-25.1,4.1c-19.7-2.6-37.9-10.7-56.8-16.4c-7.7-2.3-15.3-4.9-22.5-8.5
						c-5.6-2.9-16.8-8.5-15.5-16.4c1.9-11.6,18.8-8.6,26.9-7.6c12.4,1.5,24.6,4.7,36.8,7.7C528.6,39.1,531,30.4,525.4,29L525.4,29z"
						/>
				</g>
				<g>
					<path class="st2" d="M449.7,41.1c-11.4,40.3-21.2,81-32.3,121.3c-1.5,5.6,7.1,8,8.7,2.4c11.1-40.4,21-81.1,32.3-121.3
						C460,37.9,451.3,35.5,449.7,41.1L449.7,41.1z"/>
				</g>
				<g>
					<path class="st2" d="M578.1,76.9c-10.8,38.9-18.4,78.9-31.4,117.1c-1.9,5.5,6.8,7.9,8.7,2.4c13.1-38.3,20.6-78.2,31.4-117.1
						C588.4,73.7,579.7,71.3,578.1,76.9L578.1,76.9z"/>
				</g>
				<g>
					<path class="st2" d="M419.5,167c4.2,6.9,10.8,12.2,17.4,16.7c8.9,6.2,18.7,11.1,28.7,15.3c19.8,8.3,42.9,15.3,64.6,12.2
						c9.8-1.4,18.9-5.4,24.7-13.7c3.3-4.8-4.5-9.3-7.8-4.5c-9.4,13.4-31.7,10.6-45.3,8c-19.9-3.9-39.6-11.7-56.8-22.6
						c-6.5-4.2-13.7-9.1-17.8-15.9C424.3,157.5,416.5,162,419.5,167L419.5,167z"/>
				</g>
				<g>
					<path class="st2" d="M536.3,159.9c-8.8,12.6-25.5,15.2-39.7,12.4c-13.4-2.7-29.2-11.4-34.7-24.6c-5.5-13.3,6.4-24.9,18.6-27.4
						c11-2.2,22.4,0.6,32.3,5.5C524.9,131.8,546.5,143.9,536.3,159.9c-3.1,4.9,4.7,9.4,7.8,4.5c11.1-17.6-3.5-32.9-18.2-41.8
						c-13.2-8-28.1-13.5-43.8-11.6c-15.9,1.9-32.2,14.5-30.5,32.1c1.7,18,20.7,31.2,36.5,36.3c19.7,6.3,43.5,2.8,55.9-15
						C547.4,159.7,539.6,155.2,536.3,159.9z"/>
				</g>
				<g>
					<path class="st2" d="M491,96c5.4,4.8,9.6,10.4,12.9,16.8c2.7,5.1,10.4,0.6,7.8-4.5c-3.6-7-8.5-13.3-14.3-18.6
						C493.1,85.7,486.7,92.1,491,96L491,96z"/>
				</g>
				<g>
					<path class="st2" d="M524.1,114.6c5.3-3.1,10.9-5,17.1-5.4c5.8-0.4,5.8-9.4,0-9c-7.7,0.5-15,2.6-21.6,6.6
						C514.6,109.7,519.2,117.5,524.1,114.6L524.1,114.6z"/>
				</g>
			</g>
		</g>
		<g>
			<defs>
				<rect id="SVGID_5_" width="800" height="200"/>
			</defs>
			<clipPath id="SVGID_6_">
				<use xlink:href="#SVGID_5_"  style="overflow:visible;"/>
			</clipPath>
			<g class="st3">
				<g>
					<path class="st2" d="M688.5,50.7c-11.7,3.2-23.4,6.4-34.7,11c-9.3,3.8-21.9,9.1-23.1,20.5c-2.6,24.4,30.8,20.7,45.8,17.9
						c18.5-3.4,37.7-6,55.5-12.1c9.5-3.2,20.4-7.7,26.1-16.5c4.9-7.6,4.1-18.3-4.1-23.1c-9.9-5.9-24.1-4.5-35.1-3.3
						C708.8,46.1,698.2,47.6,688.5,50.7c-5.5,1.8-3.1,10.5,2.4,8.7c6.6-2.1,13.7-3.3,20.6-4.3c9.7-1.5,20.1-2.7,29.8-1.3
						c6,0.9,12.8,3.1,10.4,10.6c-2.4,7.4-12.1,11.3-18.7,13.8c-16.7,6.3-34.4,8.1-51.6,11.9c-6.9,1.5-13.9,2.9-21,3.3
						c-5.7,0.3-17,1-20.1-5.3c-4.8-9.7,10.7-15.4,17.1-18c10.9-4.4,22.3-7.5,33.6-10.6C696.5,57.8,694.1,49.2,688.5,50.7L688.5,50.7
						z"/>
				</g>
				<g>
					<path class="st2" d="M633.2,94.8c4.1,17.3,9.2,34.4,13.4,51.7c1.4,5.6,10.1,3.2,8.7-2.4c-4.3-17.3-9.3-34.4-13.4-51.7
						C640.5,86.7,631.9,89.1,633.2,94.8L633.2,94.8z"/>
				</g>
				<g>
					<path class="st2" d="M752,66c3.9,16.1,9.3,31.6,12.3,48c1,5.7,9.7,3.3,8.7-2.4c-3-16.4-8.3-31.8-12.3-48
						C759.3,57.9,750.6,60.3,752,66L752,66z"/>
				</g>
				<g>
					<path class="st2" d="M650.6,149.3c14.6,8.4,35.4,6.9,51.5,5c19.6-2.3,41.2-6.9,57.2-19.1c7.4-5.6,12.9-13,13.9-22.5
						c0.6-5.8-8.4-5.7-9,0c-1.5,14.7-20.7,22.4-32.7,26.3c-17.5,5.7-36.5,8.2-54.9,7.3c-7.1-0.4-15.1-1.1-21.4-4.7
						C650.1,138.7,645.5,146.5,650.6,149.3L650.6,149.3z"/>
				</g>
				<g>
					<path class="st2" d="M719.2,74.7c6-1.9,11.9-3.8,17.9-5.7c5.5-1.8,3.1-10.4-2.4-8.7c-6,1.9-11.9,3.8-17.9,5.7
						C711.3,67.8,713.6,76.5,719.2,74.7L719.2,74.7z"/>
				</g>
			</g>
		</g>
		<g>
			<defs>
				<rect id="SVGID_7_" width="800" height="200"/>
			</defs>
			<clipPath id="SVGID_8_">
				<use xlink:href="#SVGID_7_"  style="overflow:visible;"/>
			</clipPath>
			<g class="st4">
				<g>
					<path class="st2" d="M149.3,226.8c8.5,16,20,30.2,34,41.9c1.9,1.6,4.4,1.8,6.4,0c51.7-47.5,101.7-96.8,149.8-147.8
						c4-4.2-2.4-10.6-6.4-6.4c-48.2,51.1-98.1,100.4-149.8,147.8c2.1,0,4.2,0,6.4,0c-13.4-11.2-24.4-24.6-32.5-40
						C154.4,217.2,146.6,221.7,149.3,226.8L149.3,226.8z"/>
				</g>
				<g>
					<path class="st2" d="M140.1,204.2c43.5-57.5,90.4-112.4,140.2-164.5c4-4.2-2.3-10.6-6.4-6.4C223.6,86,176.3,141.6,132.4,199.7
						C128.9,204.3,136.7,208.8,140.1,204.2L140.1,204.2z"/>
				</g>
				<g>
					<path class="st2" d="M306.1,57.1c12.3,14.4,24.6,28.8,36.8,43.2c3.8,4.4,10.1-2,6.4-6.4c-12.3-14.4-24.6-28.8-36.8-43.2
						C308.7,46.3,302.4,52.7,306.1,57.1L306.1,57.1z"/>
				</g>
				<g>
					<path class="st2" d="M319.3,37.5C351.8,2,385.9-32,421.3-64.4c4.3-3.9-2.1-10.3-6.4-6.4C379.5-38.3,345.5-4.3,313,31.1
						C309.1,35.4,315.4,41.7,319.3,37.5L319.3,37.5z"/>
				</g>
				<g>
					<path class="st2" d="M338.9,42.3c29-25.7,56.9-52.5,83.9-80.3c4-4.2-2.3-10.5-6.4-6.4c-26.9,27.8-54.9,54.6-83.9,80.3
						C328.2,39.8,334.5,46.2,338.9,42.3L338.9,42.3z"/>
				</g>
				<g>
					<path class="st2" d="M346.6,64.5c25-24.9,50-49.8,75.1-74.7c4.1-4.1-2.3-10.5-6.4-6.4c-25,24.9-50,49.8-75.1,74.7
						C336.1,62.3,342.5,68.6,346.6,64.5L346.6,64.5z"/>
				</g>
				<g>
					<path class="st2" d="M300.2,32c23.8-23.8,46-49.1,66.7-75.6c3.5-4.5-2.8-10.9-6.4-6.4c-20.7,26.5-43,51.7-66.7,75.6
						C289.7,29.7,296.1,36.1,300.2,32L300.2,32z"/>
				</g>
				<g>
					<path class="st2" d="M357.5,85.1c22.2-25.5,45.1-50.3,68.6-74.6c4-4.2-2.3-10.5-6.4-6.4c-23.5,24.3-46.4,49.1-68.6,74.6
						C347.3,83.1,353.7,89.5,357.5,85.1L357.5,85.1z"/>
				</g>
				<g>
					<path class="st2" d="M192.3,191c3.3,4.1,6.6,8.1,9.8,12.2c2.5,3,5,6.1,9.3,5.1c4.3-0.9,7.6-5.5,10.6-8.4
						c4.3-4.1,8.6-8.3,13-12.4c16.8-16.1,33.6-32.2,50.4-48.4c4.2-4-2.2-10.4-6.4-6.4c-14.4,13.8-28.8,27.6-43.2,41.5
						c-7.2,6.9-14.4,13.8-21.6,20.7c-1.4,1.4-2.8,2.8-4.3,4.1c1.2,1,1.4,0.9,0.3-0.1c-0.8-1-1.5-1.9-2.3-2.9
						c-3.1-3.8-6.2-7.6-9.3-11.5C195,180.1,188.7,186.5,192.3,191L192.3,191z"/>
				</g>
			</g>
		</g>
		<g>
			<defs>
				<rect id="SVGID_9_" width="800" height="200"/>
			</defs>
			<clipPath id="SVGID_10_">
				<use xlink:href="#SVGID_9_"  style="overflow:visible;"/>
			</clipPath>
			<g class="st5">
				<path class="st2" d="M83.6,48.1c0.1-7.8-1.3-15.8-2.1-23.6c-1-10.6-2-21.5-1.4-32.1c0.1-1.8,0.2-3.6,0.6-5.3c0.2-1,1-3,1-3.2
					c0-0.1,0.1,0-0.6,0.3c-0.5,0.2-0.2-0.2-0.1,0.1c0-0.1,1.3,1.2,2,2c5.5,6.8,8.3,16.4,11,24.6c2.9,8.6,5.3,17.3,7.7,26
					c0.6,2.1,0.9,5,2.5,6.7c2,2,5.1,2,7.7,1.8c9.5-0.6,18.9-2.7,28.4-3.6c5-0.4,10.1-0.8,15.1-0.2c1.6,0.2,3.4,0.5,4.9,1.2
					c0.1,0.1,1,0.7,1.2,0.7c4.2-0.5,0,0.6,0.4,0.3c-0.2,0.1-0.3-2.4-0.2-2.2c0.4,0.4-5.5,5.2-6.6,6c-4.2,3.1-8.6,5.8-13,8.5
					c-6.6,4-14.6,7.4-20.5,12.5c-3.9,3.4-3.3,11.5-3.8,16.2c-1,9.7-1.7,19.5-2.6,29.2c-0.7,7.7-1,16.1-2.4,23.5
					c-0.1,0.4-0.3,1-0.3,1.4c0,1-0.1,0.2,0,0.3c-2-2.2,4.6-2.5,4.5-2c0-0.1-0.2,0-0.6-0.7c-1.7-2.4-3.5-5.5-5-8.4
					c-4.6-9-8.4-18.4-12.5-27.7c-3-6.8-5.7-15.4-10.8-21C84.4,75,77.2,76.5,72,76.5c-9.9,0-20.1,0.3-29.9-1.2
					c-1.8-0.3-3.5-0.6-5.2-1.1c-0.5-0.2-3.4-1.1-2.2-0.7c0.5,0.2-0.6,0.8,0.6-0.5c1.4-1.5,2.9-2.6,4.7-3.7
					c9.2-5.7,19.8-9.2,29.9-12.9c3.9-1.4,7.7-2.8,11.5-4.5c5.3-2.4,0.7-10.2-4.5-7.8C67,48.7,56.4,51.6,46.5,56
					c-7,3.1-20.7,8.5-20.7,17.9c0.1,9.2,13,10.1,19.6,10.7c10.7,1.1,21.4,0.8,32.1,0.8c1.5,0,3,0.2,4.4,0c1.4-0.1,0.5,0.4,0.3,0
					c0,0-0.8-1.1-0.7-0.3c0,0.3,1.3,1.9,1.9,2.9c1,1.8,1.9,3.6,2.8,5.4c4.7,9.8,8.7,19.9,13.2,29.8c3,6.6,6.4,17.2,12.9,21.3
					c7.4,4.6,9.2-4.2,9.9-9.4c2.4-19.1,2.8-39.1,5.4-57.7c0.1-1,0.6-2.2,0.5-3.2c0-0.1,0.2-0.4,0.1-0.5v-0.1
					c0.2-0.7-0.1-0.2-0.9,1.6c-0.2,0.7-0.4,0.1,0.6-0.4c3.7-1.8,7.3-4.4,10.9-6.5c9.1-5.4,18.9-10.8,26.8-18
					c2.4-2.2,5.1-5.1,4.9-8.6c-0.3-4.4-4.9-7-8.6-8.2c-10.1-3.3-22-1.2-32.2,0.2c-5,0.7-9.9,1.5-14.8,2.1c-1.6,0.2-3.3,0.2-4.9,0.4
					c-1.5,0.2-0.6-0.5-0.4,0.2c0.4,1.2,1.8,3.4,1.7,1.5c-0.2-3.1-1.8-6.6-2.6-9.6c-1.4-5.1-2.9-10.1-4.5-15.1
					c-3.2-10-6.5-20.6-12.1-29.5c-3.4-5.4-10.8-12.7-17-6.2c-5.8,6-4.3,18.8-4.1,26.4c0.4,11.5,1.7,22.9,2.8,34.4
					c0.3,3.2,0.7,6.5,0.7,9.7C74.5,53.9,83.5,53.9,83.6,48.1L83.6,48.1z"/>
			</g>
		</g>
	</g>
</g>
</svg>
