<?xml version="1.0" encoding="utf-8"?>
<!-- Generator: Adobe Illustrator 24.1.0, SVG Export Plug-In . SVG Version: 6.00 Build 0)  -->
<svg version="1.1" id="Ebene_1" xmlns="http://www.w3.org/2000/svg" xmlns:xlink="http://www.w3.org/1999/xlink" x="0px" y="0px"
	 viewBox="0 0 800 200" style="enable-background:new 0 0 800 200;" xml:space="preserve">
<style type="text/css">
	.st0{clip-path:url(#SVGID_2_);fill:#0BE881;}
	.st1{clip-path:url(#SVGID_4_);}
	.st2{fill:#FFFFFF;}
	.st3{clip-path:url(#SVGID_6_);}
	.st4{clip-path:url(#SVGID_8_);}
	.st5{clip-path:url(#SVGID_10_);}
</style>
<g id="Ebene_3">
	<g>
		<g>
			<defs>
				<rect id="SVGID_1_" width="800" height="200"/>
			</defs>
			<clipPath id="SVGID_2_">
				<use xlink:href="#SVGID_1_"  style="overflow:visible;"/>
			</clipPath>
			<rect class="st0" width="800" height="200"/>
		</g>
		<g>
			<defs>
				<rect id="SVGID_3_" width="800" height="200"/>
			</defs>
			<clipPath id="SVGID_4_">
				<use xlink:href="#SVGID_3_"  style="overflow:visible;"/>
			</clipPath>
			<g class="st1">
				<g>
					<path class="st2" d="M256.6,134.2c5.8-0.5,11.5-0.6,17.3-0.2c5.5,0.5,12.3,1.1,17.3,3.7c9.5,5.1,5.7,18.5,2.9,26.5
						c-7.8,22.1-22.9,42-35.7,61.4c-6.7,10.2-13.5,20.3-20.6,30.2c-1.4,1.9-8.9,14.3-11.6,12.1c-1-0.8-0.3-5.9-0.4-7.2
						c-0.1-3.6-0.1-7.3-0.1-10.9c0.3-22.2,3.9-44.2,8-65.9c3.3-17.5,8.7-40.5,25.2-50.3c5-2.9,0.5-10.7-4.5-7.8
						c-18,10.7-25,33.9-28.8,53.2c-5.3,26.2-9.3,53.1-8.7,79.9c0.1,5-0.6,11.8,2.9,15.9c3.7,4.5,9.5,3.6,13.7,0.5
						c4.8-3.5,8.1-9.3,11.6-14.1c4.7-6.5,9.3-13.1,13.8-19.7c8.4-12.4,16.5-25.1,24.6-37.7c7.4-11.5,14.5-23.3,19.2-36.2
						c3.9-10.6,6.8-25-2.1-34c-4.9-5-12.3-6.5-19-7.5c-8.2-1.3-16.5-1.5-24.8-0.7C250.9,125.7,250.9,134.7,256.6,134.2L256.6,134.2z
						"/>
				</g>
				<g>
					<path class="st2" d="M298.5,129.9c11.4-14.3,21.6-29.4,30.3-45.4c5.6-10.4,12.2-21.9,12.8-34c0.6-11.7-9.5-17.6-19.7-11.8
						c-5.9,3.4-10.5,9.1-14.5,14.5c-2.3,3.2-4.5,6.5-6.6,9.9c-1,1.6-1.9,3.1-2.8,4.7c-1,1.8-1.7,1.6,0.3,2.8
						c2.3,1.5,1.6-0.2,1.8-1.9c1.6-11.9,4.5-30.5-4.9-40.1c-8.1-8.2-15.9-0.9-19.3,7.4c-2.3,5.5-3.7,11.2-5,17c-0.7,3-1.3,6.1-2,9.2
						c-0.3,1.5-0.6,7.3-2.3,8c-2.2,0.9-5.9-5.5-7.1-6.9c-2.6-2.9-5.5-5.9-9-7.5c-6.2-2.9-12.4-0.4-16.3,5
						c-7.1,9.9-1.4,22.3,4.4,31.3c3.7,5.8,8,11.2,12.2,16.7c3.2,4.2,7.1,8.7,9.1,13.7c2.2,5.3,10.9,3,8.7-2.4
						c-3.5-8.7-10.1-15.9-15.7-23.3c-5.2-6.9-13.3-16.4-13-25.6c0.2-4.8,3.9-9.5,8.6-6.1c5.1,3.8,8,11.8,14.3,13.8
						c13.1,4.2,14.5-12.3,16.4-20.8c1.2-5.5,2.5-11.1,4.4-16.5c0.5-1.5,2.6-7.5,4.1-7.6c3.2-0.1,4.5,8.8,4.7,10.8
						c0.8,7.2,0.1,14.5-0.7,21.6c-0.6,5.1-1.6,11.7,5.2,12.8c6.7,1.1,9.2-6.9,12-11.4c3.6-5.9,7.6-11.9,12.5-16.8
						c1.8-1.8,8.1-8,10.9-4.8c2.5,2.8-0.5,10.7-1.4,13.5c-1.9,6.1-5,11.7-7.9,17.3c-8.7,16.5-18.9,32.2-30.5,46.7
						C288.6,128,294.9,134.4,298.5,129.9L298.5,129.9z"/>
				</g>
			</g>
		</g>
		<g>
			<defs>
				<rect id="SVGID_5_" width="800" height="200"/>
			</defs>
			<clipPath id="SVGID_6_">
				<use xlink:href="#SVGID_5_"  style="overflow:visible;"/>
			</clipPath>
			<g class="st3">
				<g>
					<path class="st2" d="M88.9,25.2c-11,4-22,8-32.5,13.3C47.9,42.9,36.1,49.1,35.8,60c-0.7,23.8,30.8,18,45.1,14
						c17.3-4.8,35.2-8.9,51.8-16c8.9-3.8,19.1-8.9,24-17.7c4.1-7.3,3.2-17.6-4.6-22c-9.9-5.6-24-2.9-34.5-1
						C108,19.2,98,21.4,88.9,25.2c-5.3,2.2-3,10.9,2.4,8.7c6.2-2.6,12.9-4.3,19.4-5.8c9.2-2.2,18.9-4.1,28.4-3.7
						c5.8,0.3,12.5,1.7,10.8,9c-1.7,7.4-10.9,11.8-17.1,14.8c-15.1,7.3-31.6,10.2-47.5,15.1c-6.5,2-13.1,3.9-19.8,4.9
						C60.2,69,49.7,70.6,46,65.3c-6.2-8.6,8.3-15.5,14-18.4c10.1-5.2,20.7-9.1,31.4-13C96.7,31.9,94.4,23.2,88.9,25.2L88.9,25.2z"/>
				</g>
				<g>
					<path class="st2" d="M39,71.7c11.5,34.9,24.3,69.4,36.1,104.3c1.8,5.5,10.5,3.1,8.7-2.4c-11.7-34.9-24.6-69.4-36.1-104.3
						C45.9,63.9,37.2,66.2,39,71.7L39,71.7z"/>
				</g>
				<g>
					<path class="st2" d="M150.2,34.7c11.3,33.7,25.4,66.5,34.7,100.8c1.5,5.6,10.2,3.2,8.7-2.4c-9.3-34.3-23.4-67.1-34.7-100.8
						C157.1,26.8,148.4,29.2,150.2,34.7L150.2,34.7z"/>
				</g>
				<g>
					<path class="st2" d="M79,178.7c14.9,6.9,34.5,3.9,50.1,0.9c18.6-3.6,38.7-10.1,53.1-22.8c6.5-5.8,11.4-13.5,11.6-22.4
						c0.1-5.8-8.9-5.8-9,0c-0.3,14.2-17.3,22.9-28.5,27.8C140,169,122,173,104.4,173.5c-6.7,0.2-14.7,0.3-20.9-2.6
						C78.3,168.5,73.7,176.3,79,178.7L79,178.7z"/>
				</g>
				<g>
					<path class="st2" d="M160.6,115.6c-0.5,25.7-37.7,39.8-58.3,28c-11.3-6.4-8.8-21.1-0.7-29.1c7.8-7.7,18.5-10.9,29.2-12
						C141.5,101.5,160.2,100.8,160.6,115.6c0.2,5.8,9.2,5.8,9,0c-0.5-17.3-16.2-22.6-31.2-22.4c-14.3,0.2-28.8,3.3-40.2,12.4
						c-11.9,9.6-18.1,28.6-6.5,41c10.1,10.9,28.5,11.5,42,8.2c18.4-4.5,35.6-19.3,35.9-39.2C169.7,109.8,160.7,109.8,160.6,115.6z"
						/>
				</g>
				<g>
					<path class="st2" d="M96.3,92c6.2,0.9,12,2.7,17.5,5.7c5.1,2.8,9.6-5,4.5-7.8c-6.2-3.4-12.7-5.6-19.7-6.6
						c-2.4-0.3-4.8,0.6-5.5,3.1C92.5,88.5,93.9,91.6,96.3,92L96.3,92z"/>
				</g>
				<g>
					<path class="st2" d="M130.3,89.3c2.2-4.8,5.3-9,9.5-12.2c1.9-1.5,2.9-3.9,1.6-6.2c-1.1-1.9-4.2-3.1-6.2-1.6
						c-5.4,4.2-9.8,9.2-12.8,15.5c-1,2.2-0.6,4.9,1.6,6.2C126.1,92.1,129.3,91.5,130.3,89.3L130.3,89.3z"/>
				</g>
			</g>
		</g>
		<g>
			<defs>
				<rect id="SVGID_7_" width="800" height="200"/>
			</defs>
			<clipPath id="SVGID_8_">
				<use xlink:href="#SVGID_7_"  style="overflow:visible;"/>
			</clipPath>
			<g class="st4">
				<g>
					<path class="st2" d="M561,82.8c24.2-12,39.4-41.9,28-67.8c-10.9-24.8-41.9-37.5-64.7-20.2c-11.9,9-18.6,23.4-16.1,38.3
						c1,5.7,9.5,3.2,8.7-2.4c-1-7.1-7.7-11.9-13.1-15.8c-6.1-4.4-13.1-7.9-20.3-10.1c-13.3-4.1-28.6-3.9-40.9,3.1
						c-20.5,11.6-29.3,42.2-12.7,60.5c1.4,1.6,3.7,1.6,5.5,0.7c6.4-3.2,6.8-12.2,2-17c-6-6.1-16.6-4.8-24.2-3.3
						c-16.6,3.3-32.1,14-40.2,28.9c-15.8,28.6,0.1,69.6,34,74.3c17.5,2.4,35.6-4.9,45.3-19.8c-2.7-0.4-5.5-0.7-8.2-1.1
						c6.1,14.4,22.7,23.5,38.1,18.6c15.7-4.9,24.6-22.8,20.2-38.4c-1.5-5.6-10.2-3.2-8.7,2.4c3,10.9-2.9,23.7-13.9,27.3
						c-10.3,3.4-22.8-2.4-27-12.4c-1.5-3.5-6-4.6-8.2-1.1c-13.1,20.2-44,20.8-59.1,2.7c-16.5-19.8-11.1-49.3,9.4-63.9
						c5.8-4.1,12.3-7.1,19.3-8.6c3.4-0.8,6.9-1.2,10.3-1.1c1.8,0,5.2,0.1,6.5,1.8c0.8,1,0.9,2.3-0.2,2.9c1.8,0.2,3.6,0.5,5.5,0.7
						c-12.9-14-4.5-37.7,10.7-46.3c9.8-5.5,21.9-5.6,32.5-2.6c5.6,1.6,10.9,4,15.8,7c4.6,2.9,12,7.2,12.9,13.1
						c2.9-0.8,5.8-1.6,8.7-2.4c-2.2-13.4,6.6-26.4,18.3-32.2c12.7-6.2,27.3-2,37,7.6c22.1,21.8,9.8,56.2-15.7,68.9
						C551.2,77.6,555.8,85.4,561,82.8L561,82.8z"/>
				</g>
				<g>
					<path class="st2" d="M480.1,77.1c11.9,7.6,27.7,8.3,39.9,1c11.8-7.1,18.7-20.4,18.2-34.1c-0.2-5.8-9.2-5.8-9,0
						c0.8,23.6-24.8,38-44.6,25.3C479.8,66.2,475.3,74,480.1,77.1L480.1,77.1z"/>
				</g>
				<g>
					<path class="st2" d="M559.4,86.4c-0.6,32.5,6,64.6,19.1,94.3c2.3,5.3,10.1,0.7,7.8-4.5c-12.5-28.2-18.5-58.9-17.9-89.8
						C568.5,80.6,559.5,80.6,559.4,86.4L559.4,86.4z"/>
				</g>
				<g>
					<path class="st2" d="M493.3,152c17.9,16,28.8,38.5,30,62.5c0.3,5.8,9.3,5.8,9,0c-1.2-26.3-12.9-51.3-32.6-68.9
						C495.4,141.8,489,148.1,493.3,152L493.3,152z"/>
				</g>
				<g>
					<path class="st2" d="M524.6,141.2c6.7,19.2,16,37.4,27.9,53.9c3.3,4.7,11.2,0.2,7.8-4.5c-11.4-15.9-20.5-33.3-27-51.8
						C531.4,133.3,522.7,135.7,524.6,141.2L524.6,141.2z"/>
				</g>
				<g>
					<path class="st2" d="M576.8,205.3c7.5-1.4,14.1-6.6,17.1-13.6c1-2.2,0.7-4.8-1.6-6.2c-1.9-1.1-5.2-0.6-6.2,1.6
						c-2.2,5.1-6.2,8.4-11.7,9.4C568.8,197.7,571.2,206.3,576.8,205.3L576.8,205.3z"/>
				</g>
			</g>
		</g>
		<g>
			<defs>
				<rect id="SVGID_9_" width="800" height="200"/>
			</defs>
			<clipPath id="SVGID_10_">
				<use xlink:href="#SVGID_9_"  style="overflow:visible;"/>
			</clipPath>
			<g class="st5">
				<g>
					<path class="st2" d="M699.1,53.6c-11.9-0.5-23.8-1-35.7,0c-9.5,0.8-23.6,1.8-28.3,11.7c-11,23,22.2,29.9,37.8,31.8
						c18.9,2.3,38.2,5.7,57.3,5.2c10-0.3,21.9-1.3,29.7-8.3c6.8-6.1,8.5-16.5,1.9-23.3c-8-8.3-21.7-11.2-32.5-13.4
						C719.5,55.3,709.1,53.5,699.1,53.6c-5.8,0-5.8,9,0,9c6.8,0,13.7,1,20.4,2c9.6,1.5,19.7,3.4,28.6,7.6c5.5,2.6,11.9,6.6,7.6,13.2
						c-4.3,6.5-14.8,7.4-21.8,7.8c-18,1.1-35.6-2.7-53.4-4.3c-7.2-0.7-14.4-1.6-21.4-3.4c-5.5-1.4-16.3-4.3-17-11.3
						C641,63.4,657.6,63,664.6,62.5c11.5-0.8,23-0.3,34.6,0.1C704.9,62.8,704.9,53.8,699.1,53.6L699.1,53.6z"/>
				</g>
				<g>
					<path class="st2" d="M633.2,79c-1.3,17.8-1.7,35.6-2.9,53.4c-0.4,5.8,8.6,5.8,9,0c1.2-17.8,1.6-35.6,2.9-53.4
						C642.6,73.2,633.6,73.3,633.2,79L633.2,79z"/>
				</g>
				<g>
					<path class="st2" d="M755.1,87.5c-1.1,16.6-0.7,32.9-2.8,49.4c-0.7,5.7,8.3,5.7,9,0c2.1-16.5,1.7-32.9,2.8-49.4
						C764.5,81.7,755.5,81.8,755.1,87.5L755.1,87.5z"/>
				</g>
				<g>
					<path class="st2" d="M633.4,136.3c4.9,5.4,11.8,8.8,18.4,11.6c9.3,3.9,19,6.7,28.9,8.6c19.2,3.8,41.4,5.9,60.2-0.8
						c8.3-3,16.1-8.1,19.8-16.4c2.3-5.3-5.5-9.8-7.8-4.5c-6.1,14.1-25.6,15.9-38.9,16c-18.7,0.2-37.8-3.2-55.3-9.8
						c-6.7-2.5-14-5.7-19-11.1C635.8,125.6,629.5,132,633.4,136.3L633.4,136.3z"/>
				</g>
				<g>
					<path class="st2" d="M721.4,85.8c6.2,0,12.5,0,18.7,0c5.8,0,5.8-9,0-9c-6.2,0-12.5,0-18.7,0C715.6,76.8,715.6,85.8,721.4,85.8
						L721.4,85.8z"/>
				</g>
			</g>
		</g>
	</g>
</g>
</svg>
