<?xml version="1.0" encoding="utf-8"?>
<!-- Generator: Adobe Illustrator 24.1.0, SVG Export Plug-In . SVG Version: 6.00 Build 0)  -->
<svg version="1.1" id="Ebene_1" xmlns="http://www.w3.org/2000/svg" xmlns:xlink="http://www.w3.org/1999/xlink" x="0px" y="0px"
	 viewBox="0 0 800 200" style="enable-background:new 0 0 800 200;" xml:space="preserve">
<style type="text/css">
	.st0{clip-path:url(#SVGID_2_);fill:#00D8D6;}
	.st1{clip-path:url(#SVGID_4_);}
	.st2{fill:#FFFFFF;}
	.st3{clip-path:url(#SVGID_6_);}
	.st4{clip-path:url(#SVGID_8_);}
	.st5{clip-path:url(#SVGID_10_);}
</style>
<g id="Ebene_3">
	<g>
		<g>
			<defs>
				<rect id="SVGID_1_" width="800" height="200"/>
			</defs>
			<clipPath id="SVGID_2_">
				<use xlink:href="#SVGID_1_"  style="overflow:visible;"/>
			</clipPath>
			<rect class="st0" width="800" height="200"/>
		</g>
		<g>
			<defs>
				<rect id="SVGID_3_" width="800" height="200"/>
			</defs>
			<clipPath id="SVGID_4_">
				<use xlink:href="#SVGID_3_"  style="overflow:visible;"/>
			</clipPath>
			<g class="st1">
				<g>
					<path class="st2" d="M370.4,160c9.8-5.2,18.8-11.7,26.8-19.3c7.4-7.1,15.5-15.8,19.5-25.4c3.4-8.3,1.7-18.6-7.9-21.5
						c-9-2.7-18.3,2.1-26.4,5.5c-20.6,8.8-41.2,18-59.6,30.9c-8.7,6.1-16.9,13-24.1,20.9c-6.6,7.2-13.5,16.4-9.9,26.8
						c4.1,11.7,17.9,10.9,27.9,9.4c12.9-1.9,25.2-6.9,35.9-14.3c4.7-3.3,0.2-11.1-4.5-7.8c-7.5,5.2-15.6,9.1-24.5,11.5
						c-4.3,1.1-8.7,2-13.2,2.3c-3.6,0.3-8.8,0.9-11.7-1.9c-7.1-6.9,5.3-18.6,9.8-23.2c6-6.1,12.6-11.5,19.6-16.4
						c13.9-9.7,29.1-17.3,44.6-24.2c7.6-3.4,15.2-7.2,23.1-9.8c3.1-1,6.9-2.2,10.1-1.2c4.7,1.4,4,6.4,2.4,10
						c-3.8,8.6-11.2,16.2-17.9,22.6c-7.3,6.9-15.5,12.6-24.4,17.3C360.8,154.9,365.3,162.7,370.4,160L370.4,160z"/>
				</g>
				<g>
					<path class="st2" d="M406.7,86c-13.4-24.6-26.9-49.2-40.3-73.8c-2.8-5.1-10.6-0.5-7.8,4.5C372,41.4,385.5,66,398.9,90.6
						C401.7,95.6,409.5,91.1,406.7,86L406.7,86z"/>
				</g>
				<g>
					<path class="st2" d="M357.9,7.3c-32.8-3.7-64.8,8.8-92.4,25.6C241.7,47.4,221,67,206.8,91.1c-7.7,13.1-13.3,27.7-13.6,43
						c-0.1,5.8,8.9,5.8,9,0c0.5-25.9,17.6-49.8,35.1-67.7c19.1-19.6,44-34.7,69.8-43.7c16.4-5.7,33.5-8.3,50.8-6.4
						C363.6,17,363.6,7.9,357.9,7.3L357.9,7.3z"/>
				</g>
				<g>
					<path class="st2" d="M287.9,170.2c-13.6,5.7-27.3,12.6-37.2,23.8c-11.1,12.6-16.1,28.7-18.7,45c-0.9,5.7,7.8,8.1,8.7,2.4
						c2.4-15,6.6-30.4,17.1-41.9c9.3-10.2,22.1-16.3,34.7-21.6C297.8,175.7,293.2,168,287.9,170.2L287.9,170.2z"/>
				</g>
				<g>
					<path class="st2" d="M240.7,239.1c-13.2-35.3-27-70.4-38.7-106.2c-1.8-5.5-10.5-3.1-8.7,2.4c11.7,35.8,25.5,70.9,38.7,106.2
						C234.1,246.8,242.8,244.5,240.7,239.1L240.7,239.1z"/>
				</g>
				<g>
					<path class="st2" d="M363,132.5c-9.4-0.2-18.4,5.1-22.4,13.7c-2.5,5.2,5.3,9.8,7.8,4.5c2.7-5.8,8.1-9.4,14.6-9.2
						C368.8,141.7,368.8,132.7,363,132.5L363,132.5z"/>
				</g>
				<g>
					<path class="st2" d="M355.1,95.6c-2-4.8-4.1-9.5-6.1-14.3c-1-2.2-4.2-2.7-6.2-1.6c-2.3,1.4-2.6,3.9-1.6,6.2
						c2,4.8,4.1,9.5,6.1,14.3c1,2.2,4.2,2.7,6.2,1.6C355.8,100.4,356,97.8,355.1,95.6L355.1,95.6z"/>
				</g>
				<g>
					<path class="st2" d="M340.8,65.3c-2.2-5.1-4.4-10.3-6.6-15.4c-1-2.3-4.2-2.7-6.2-1.6c-2.3,1.3-2.6,3.9-1.6,6.2
						c2.2,5.1,4.4,10.3,6.6,15.4c1,2.3,4.2,2.7,6.2,1.6C341.6,70.1,341.8,67.5,340.8,65.3L340.8,65.3z"/>
				</g>
				<g>
					<path class="st2" d="M327.1,36c-1.6-3.8-3.3-7.7-4.9-11.5c-1-2.2-4.2-2.7-6.2-1.6c-2.3,1.4-2.6,3.9-1.6,6.2
						c1.6,3.8,3.3,7.7,4.9,11.5c1,2.2,4.2,2.7,6.2,1.6C327.8,40.8,328.1,38.3,327.1,36L327.1,36z"/>
				</g>
				<g>
					<path class="st2" d="M293.4,171c-13.6-30.3-26.2-60.9-37.7-92c-2-5.4-10.7-3.1-8.7,2.4c11.8,31.8,24.7,63.2,38.6,94.2
						C288,180.8,295.7,176.2,293.4,171L293.4,171z"/>
				</g>
			</g>
		</g>
		<g>
			<defs>
				<rect id="SVGID_5_" width="800" height="200"/>
			</defs>
			<clipPath id="SVGID_6_">
				<use xlink:href="#SVGID_5_"  style="overflow:visible;"/>
			</clipPath>
			<g class="st3">
				<g>
					<path class="st2" d="M470,151.9c21.3-65.4,38.7-132,52.3-199.4c1.1-5.7-7.5-8.1-8.7-2.4c-13.5,67.4-31,134-52.3,199.4
						C459.6,155,468.3,157.4,470,151.9L470,151.9z"/>
				</g>
				<g>
					<path class="st2" d="M468.5,153.9c12,4.6,23.9,9.2,35.9,13.8c5.4,2.1,7.7-6.6,2.4-8.7c-12-4.6-23.9-9.2-35.9-13.8
						C465.5,143.2,463.2,151.9,468.5,153.9L468.5,153.9z"/>
				</g>
				<g>
					<path class="st2" d="M475.3,137.9c8.2,4.1,16.5,8.2,24.7,12.4c5.2,2.6,9.7-5.2,4.5-7.8c-8.2-4.1-16.5-8.2-24.7-12.4
						C474.7,127.5,470.1,135.3,475.3,137.9L475.3,137.9z"/>
				</g>
				<g>
					<path class="st2" d="M477.3,123.7c9,1.7,18.1,3.5,27.1,5.2c5.7,1.1,8.1-7.6,2.4-8.7c-9-1.7-18.1-3.5-27.1-5.2
						C474,114,471.6,122.7,477.3,123.7L477.3,123.7z"/>
				</g>
				<g>
					<path class="st2" d="M483.8,106.5c6.2,1.7,12.4,3.3,18.5,5c5.6,1.5,8-7.2,2.4-8.7c-6.2-1.7-12.4-3.3-18.5-5
						C480.6,96.3,478.2,105,483.8,106.5L483.8,106.5z"/>
				</g>
				<g>
					<path class="st2" d="M488.3,88.8c6.1,2.2,12.3,4.4,18.4,6.5c5.5,1.9,7.8-6.8,2.4-8.7c-6.1-2.2-12.3-4.4-18.4-6.5
						C485.2,78.2,482.9,86.8,488.3,88.8L488.3,88.8z"/>
				</g>
			</g>
		</g>
		<g>
			<defs>
				<rect id="SVGID_7_" width="800" height="200"/>
			</defs>
			<clipPath id="SVGID_8_">
				<use xlink:href="#SVGID_7_"  style="overflow:visible;"/>
			</clipPath>
			<g class="st4">
				<g>
					<path class="st2" d="M122.1,38c-18,66.4-32.2,133.7-42.4,201.7c-0.9,5.7,7.8,8.1,8.7,2.4c10.2-68,24.4-135.4,42.4-201.7
						C132.3,34.8,123.6,32.4,122.1,38L122.1,38z"/>
				</g>
				<g>
					<path class="st2" d="M123.6,36.2c-12.2-4-24.3-8-36.5-12.1c-5.5-1.8-7.9,6.9-2.4,8.7c12.2,4,24.3,8,36.5,12.1
						C126.8,46.7,129.1,38,123.6,36.2L123.6,36.2z"/>
				</g>
				<g>
					<path class="st2" d="M117.6,52.6c-8.4-3.7-16.9-7.4-25.3-11.1c-5.3-2.3-9.8,5.4-4.5,7.8c8.4,3.7,16.9,7.4,25.3,11.1
						C118.3,62.7,122.9,54.9,117.6,52.6L117.6,52.6z"/>
				</g>
				<g>
					<path class="st2" d="M116.4,66.7c-9.1-1.3-18.2-2.6-27.4-3.9c-5.7-0.8-8.1,7.9-2.4,8.7c9.1,1.3,18.2,2.6,27.4,3.9
						C119.7,76.2,122.1,67.5,116.4,66.7L116.4,66.7z"/>
				</g>
				<g>
					<path class="st2" d="M110.7,84.3c-6.3-1.3-12.5-2.7-18.8-4c-5.6-1.2-8.1,7.5-2.4,8.7c6.3,1.3,12.5,2.7,18.8,4
						C114,94.2,116.4,85.6,110.7,84.3L110.7,84.3z"/>
				</g>
				<g>
					<path class="st2" d="M107.1,102.2c-6.2-1.9-12.5-3.7-18.7-5.6c-5.6-1.7-7.9,7-2.4,8.7c6.2,1.9,12.5,3.7,18.7,5.6
						C110.3,112.6,112.7,103.9,107.1,102.2L107.1,102.2z"/>
				</g>
			</g>
		</g>
		<g>
			<defs>
				<rect id="SVGID_9_" width="800" height="200"/>
			</defs>
			<clipPath id="SVGID_10_">
				<use xlink:href="#SVGID_9_"  style="overflow:visible;"/>
			</clipPath>
			<g class="st5">
				<g>
					<path class="st2" d="M651.9,19c-0.9-10.6-0.5-21.2,1.7-31.5c0.9-4.2,1.5-9.2,6.2-10.7c4.6-1.5,9.9-1.6,14.6-2.3
						c9.6-1.3,19.7-2.8,23.5,8.3c3,8.7,3.4,18.5,4.7,27.5c1.4,9.9,2.2,20.1,5.5,29.6c3.1,8.9,8.2,16.8,12.4,25.2
						c8.4,17.1,14.4,35.4,18.5,54c4.5,20.8,6.3,42.2,5,63.4c-0.4,5.8,8.6,5.8,9,0c2.6-42.2-6.5-85.7-25.4-123.5
						c-5.1-10.3-10.9-19.6-13.2-31.1c-2.3-11.6-3.5-23.5-5.2-35.2c-1.2-8.6-2.8-18.2-10-24c-8-6.4-18.7-4.1-28.1-2.8
						c-5.4,0.7-11.7,0.8-16.7,3.3c-4.5,2.2-6.9,6.3-8.3,11c-3.7,12.4-4.3,26-3.2,38.8C643.4,24.7,652.4,24.8,651.9,19L651.9,19z"/>
				</g>
				<g>
					<path class="st2" d="M639.3,16.2c0.6,15.4-7.2,29.4-11.9,43.7c-4.5,13.8-7.6,28.1-9.5,42.5c-3.8,29.4-1.8,59.4,5.7,88.1
						c1.5,5.6,10.1,3.2,8.7-2.4c-7.4-28.7-9.2-58.7-5-88.1c2.1-14.3,5.5-28.4,10.3-42c4.8-13.7,11.3-26.9,10.8-41.8
						C648.1,10.4,639.1,10.4,639.3,16.2L639.3,16.2z"/>
				</g>
				<g>
					<path class="st2" d="M623.9,192.4c3.5,14.2,18.1,19.7,31.4,19.8c17.2,0.2,34.7-2.6,51.7-4.9c8.6-1.2,17.3-2.5,25.9-3.7
						c4.8-0.7,9.6-1.3,13.6-4.4c8.2-6.3,7.4-18.5,6.9-27.6c-0.4-5.8-9.4-5.8-9,0c0.4,6,2.2,17.3-4.1,21.1c-3.6,2.1-8.6,2.1-12.5,2.7
						c-7,1-14.1,2.1-21.1,3.1c-14,1.9-28,3.6-42.1,4.5c-11.3,0.8-28.4,1-31.8-12.9C631.2,184.4,622.6,186.7,623.9,192.4L623.9,192.4
						z"/>
				</g>
				<g>
					<path class="st2" d="M642.9,19c-0.5,10.4,22.1,7.9,27.9,7.7c6.8-0.2,13.6-0.7,20.3-1.5c4.1-0.5,9.1-0.6,12.8-2.5
						c5.1-2.7,0.6-10.5-4.5-7.8c0.8-0.4-1.2,0.2-2.2,0.4c-1.9,0.4-3.8,0.6-5.7,0.8c-5.5,0.7-11.1,1.1-16.7,1.4
						c-5.4,0.3-10.9,0.5-16.3,0.2c-2-0.1-4-0.2-5.9-0.6c-0.3-0.1-1.7-0.6-2-0.5c0.1,0,1.4,1.2,1.3,2.4
						C652.2,13.2,643.2,13.2,642.9,19L642.9,19z"/>
				</g>
				<g>
					<path class="st2" d="M631.3,85.6c33,10.7,70.3,12.2,100.4-7.4c4.8-3.2,0.3-11-4.5-7.8c-28.2,18.4-62.6,16.5-93.5,6.5
						C628.2,75.1,625.8,83.8,631.3,85.6L631.3,85.6z"/>
				</g>
				<g>
					<path class="st2" d="M696.8,161.6c-0.2,9,3.5,16.7,13.4,17.2c8.8,0.4,17.3-5,19.6-13.6c2.2-8-0.3-17-8.6-20.1
						c-8.7-3.2-16.9,1.7-21.9,8.7c-3.3,4.8,4.5,9.3,7.8,4.5c2.3-3.3,6.2-6.4,10.5-5c4.2,1.3,4.7,5.6,3.6,9.4c-1.2,4.1-4.8,6.6-9,7
						c-5.7,0.6-6.5-3.3-6.4-8.2C706,155.8,697,155.8,696.8,161.6L696.8,161.6z"/>
				</g>
				<g>
					<path class="st2" d="M643,147.4c-6.3,9.2,0,20.3,9.7,23.4c10.1,3.2,21.5-1.6,24.1-12.4c2.3-9.7-3.6-20-13.5-22.2
						c-10.5-2.3-19.5,5.4-20.3,15.7c-0.4,5.8,8.6,5.7,9,0c0.9-11.9,18.4-7.1,16.1,4c-2.5,12.5-24,5.6-17.4-4
						C654,147.2,646.3,142.7,643,147.4L643,147.4z"/>
				</g>
				<g>
					<path class="st2" d="M681.8,120c-3.7,6.1-2.6,14.1,3.3,18.4c5.7,4.1,13.1,3.1,18.1-1.6c5-4.6,7.2-12.1,3.9-18.4
						c-3.2-6.2-11.4-8.7-17.3-4.5c-4.7,3.3-0.2,11.2,4.5,7.8c2.3-1.6,4.6-0.6,5.2,2.1c0.6,2.5-0.9,5-2.8,6.6
						c-4.4,3.8-10.5-0.6-7.3-5.9C692.6,119.6,684.8,115.1,681.8,120L681.8,120z"/>
				</g>
			</g>
		</g>
	</g>
</g>
</svg>
