<?xml version="1.0" encoding="utf-8"?>
<!-- Generator: Adobe Illustrator 24.1.0, SVG Export Plug-In . SVG Version: 6.00 Build 0)  -->
<svg version="1.1" id="Ebene_1" xmlns="http://www.w3.org/2000/svg" xmlns:xlink="http://www.w3.org/1999/xlink" x="0px" y="0px"
	 viewBox="0 0 800 200" style="enable-background:new 0 0 800 200;" xml:space="preserve">
<style type="text/css">
	.st0{clip-path:url(#SVGID_2_);fill:#FFA801;}
	.st1{clip-path:url(#SVGID_4_);}
	.st2{fill:#FFFFFF;}
	.st3{clip-path:url(#SVGID_6_);}
	.st4{clip-path:url(#SVGID_8_);}
	.st5{clip-path:url(#SVGID_10_);}
	.st6{clip-path:url(#SVGID_12_);}
</style>
<g id="Ebene_3">
	<g>
		<g>
			<defs>
				<rect id="SVGID_1_" width="800" height="200"/>
			</defs>
			<clipPath id="SVGID_2_">
				<use xlink:href="#SVGID_1_"  style="overflow:visible;"/>
			</clipPath>
			<rect class="st0" width="800" height="200"/>
		</g>
		<g>
			<defs>
				<rect id="SVGID_3_" width="800" height="200"/>
			</defs>
			<clipPath id="SVGID_4_">
				<use xlink:href="#SVGID_3_"  style="overflow:visible;"/>
			</clipPath>
			<g class="st1">
				<g>
					<path class="st2" d="M273.9,77.3c-1.1,16.8-16.4,28.1-31.5,32.4c-12,3.4-28.1,3.1-38.6-4.5c-12.1-8.9-6.9-25.8,3.1-34
						c9.6-8,21.9-10.7,34.1-11.2C253.7,59.3,274.4,60.1,273.9,77.3c-0.2,5.8,8.8,5.8,9,0c0.5-19.3-17.3-25.8-33.7-26.4
						c-15.9-0.6-32.4,2-45.6,11.5c-13.5,9.8-21.9,29.6-10.7,44.5c10.3,13.6,31.2,15.4,46.7,12.7c21.3-3.7,41.8-19.6,43.3-42.2
						C283.3,71.5,274.3,71.5,273.9,77.3z"/>
				</g>
				<g>
					<path class="st2" d="M202,45.9c7.1,1.4,13.6,3.9,19.7,7.7c4.9,3,9.5-4.7,4.5-7.8c-6.7-4.1-14.1-7-21.9-8.6
						C198.7,36.1,196.3,44.8,202,45.9L202,45.9z"/>
				</g>
				<g>
					<path class="st2" d="M240,44.8c2.9-5.4,6.8-10,11.9-13.5c4.7-3.3,0.3-11.1-4.5-7.8c-6.3,4.3-11.5,9.9-15.1,16.7
						C229.5,45.4,237.3,50,240,44.8L240,44.8z"/>
				</g>
			</g>
		</g>
		<g>
			<defs>
				<rect id="SVGID_5_" width="800" height="200"/>
			</defs>
			<clipPath id="SVGID_6_">
				<use xlink:href="#SVGID_5_"  style="overflow:visible;"/>
			</clipPath>
			<g class="st3">
				<g>
					<path class="st2" d="M397,144.1c-7.7,13.7-23.7,17.9-38.5,16.6c-13.7-1.2-30.4-8.7-37-21.4c-6.8-12.9,4.5-25.7,16.7-29
						c11.1-3,22.4-1.1,32.9,2.9C383.1,117.7,405.2,127.9,397,144.1c-2.6,5.2,5.1,9.7,7.8,4.5c9.2-18.2-5.2-32-20.7-39.6
						c-14.1-7-29.4-11.2-45.2-8.2c-15.8,3-30.9,17-28.2,34.3c2.8,17.7,22.6,29.2,38.6,33c20.2,4.8,44.6-0.4,55.4-19.6
						C407.6,143.6,399.8,139.1,397,144.1z"/>
				</g>
				<g>
					<path class="st2" d="M346.1,85.7c5.4,4,10,9,13.7,14.6c3.1,4.9,10.9,0.3,7.8-4.5c-4.5-7-10.2-12.9-16.9-17.9
						C345.9,74.5,341.4,82.3,346.1,85.7L346.1,85.7z"/>
				</g>
				<g>
					<path class="st2" d="M379.9,100.8c5.3-3.9,11.1-6.3,17.6-7.4c5.7-0.9,3.3-9.6-2.4-8.7c-7.2,1.2-13.9,4-19.7,8.3
						C370.7,96.4,375.2,104.2,379.9,100.8L379.9,100.8z"/>
				</g>
			</g>
		</g>
		<g>
			<defs>
				<rect id="SVGID_7_" width="800" height="200"/>
			</defs>
			<clipPath id="SVGID_8_">
				<use xlink:href="#SVGID_7_"  style="overflow:visible;"/>
			</clipPath>
			<g class="st4">
				<g>
					<path class="st2" d="M515.3,274.8c17.9,6.8,36.7,10.5,55.9,10.8c2.5,0,4.5-2.1,4.5-4.5c0.2-20.9,1.2-41.8,1.7-62.7
						c0.5-21.1-0.8-42.1-2.3-63.1c-0.4-5.7-9.4-5.8-9,0c1.4,21,2.8,42.1,2.3,63.1c-0.5,20.9-1.5,41.8-1.7,62.7c1.5-1.5,3-3,4.5-4.5
						c-18.4-0.3-36.3-4-53.5-10.5C512.3,264.1,509.9,272.8,515.3,274.8L515.3,274.8z"/>
				</g>
				<g>
					<path class="st2" d="M491.6,262.6c-4.1-22.2-9.2-44.2-13.3-66.4c-4-21.8-5.4-43.9-6.7-66c-0.3-5.8-9.3-5.8-9,0
						c1.4,22.6,2.9,45.2,6.9,67.5c4.1,22.5,9.3,44.8,13.5,67.3C484,270.7,492.7,268.3,491.6,262.6L491.6,262.6z"/>
				</g>
				<g>
					<path class="st2" d="M501.9,128.2c19.6,3.4,39.3,6.7,58.9,10.1c5.7,1,8.1-7.7,2.4-8.7c-19.6-3.4-39.3-6.7-58.9-10.1
						C498.6,118.5,496.2,127.2,501.9,128.2L501.9,128.2z"/>
				</g>
				<g>
					<path class="st2" d="M497.5,105c-1.3-15.8-2.4-31.7-2.1-47.6c0.3-15.8,1-31.5,1.2-47.3c0.1-5.8-8.9-5.8-9,0
						c-0.2,15.8-1,31.5-1.2,47.3c-0.3,15.9,0.8,31.8,2.1,47.6C489,110.7,498,110.8,497.5,105L497.5,105z"/>
				</g>
				<g>
					<path class="st2" d="M515.1,96.9c0.3-11.3,1.4-22.5,2.5-33.8c1.2-11.3,0.8-22.7,0.2-34.1c-0.3-5.8-9.3-5.8-9,0
						c0.6,11.4,1,22.7-0.2,34.1c-1.2,11.3-2.2,22.4-2.5,33.8C505.9,102.7,514.9,102.7,515.1,96.9L515.1,96.9z"/>
				</g>
				<g>
					<path class="st2" d="M537.4,108.9c-0.6-19.5,1.3-38.8,0.7-58.3c-0.2-5.8-9.2-5.8-9,0c0.6,19.5-1.3,38.8-0.7,58.3
						C528.6,114.6,537.6,114.7,537.4,108.9L537.4,108.9z"/>
				</g>
				<g>
					<path class="st2" d="M479.8,112.5c-0.3-9.1-0.3-18.2-1.4-27.2c-1.1-9.4-3.1-18.6-4.7-27.9c-1-5.7-9.6-3.3-8.7,2.4
						c1.5,8.7,3.4,17.4,4.4,26.2s1,17.8,1.3,26.6C471,118.2,480,118.3,479.8,112.5L479.8,112.5z"/>
				</g>
				<g>
					<path class="st2" d="M560.8,117.7c-2-18.2-2.8-36.1-3.8-54.4c-0.3-5.8-9.3-5.8-9,0c1,18.2,1.8,36.2,3.8,54.4
						C552.4,123.4,561.4,123.5,560.8,117.7L560.8,117.7z"/>
				</g>
			</g>
		</g>
		<g>
			<defs>
				<rect id="SVGID_9_" width="800" height="200"/>
			</defs>
			<clipPath id="SVGID_10_">
				<use xlink:href="#SVGID_9_"  style="overflow:visible;"/>
			</clipPath>
			<g class="st5">
				<g>
					<path class="st2" d="M64.9,73.3c-14.8,23.7-26,50.8-30.2,78.5c-2,13.3-1,26.5,7.2,37.6c7,9.5,17.3,16.3,28.4,19.9
						c22.1,7.1,47.6,1.6,63.8-15.3c16-16.7,22-41.6,14.7-63.6c-8.6-26.1-30.8-44.3-47.2-65.4c-3.5-4.6-9.9,1.8-6.4,6.4
						c12.8,16.5,28.9,30.8,39.2,49.1c10.5,18.5,11.4,40.1,0,58.4c-11.3,18.2-32.7,27.3-53.8,23.7c-10.4-1.8-20.4-6.5-27.9-14
						c-9-9.1-11.3-20.7-9.7-33.1c3.5-27.3,15-54.3,29.5-77.5C75.8,72.9,68,68.3,64.9,73.3L64.9,73.3z"/>
				</g>
				<g>
					<path class="st2" d="M76.9,50.4C63.5,21.5,48-6.3,30.3-32.8c-3.2-4.8-11-0.3-7.8,4.5C40.2-1.8,55.8,26,69.1,54.9
						C71.6,60.2,79.3,55.6,76.9,50.4L76.9,50.4z"/>
				</g>
				<g>
					<path class="st2" d="M82.7,26.6c-5.2-26.3-7.3-53.1-6.4-80c0.2-5.8-8.8-5.8-9,0C66.4-25.7,68.7,1.9,74,29
						C75.1,34.7,83.8,32.3,82.7,26.6L82.7,26.6z"/>
				</g>
				<g>
					<path class="st2" d="M97.5,45.2c1.8-25,8-49.5,18.5-72.2c2.4-5.2-5.3-9.8-7.8-4.5C97-7.3,90.3,18.5,88.4,45.2
						C88.1,50.9,97.1,50.9,97.5,45.2L97.5,45.2z"/>
				</g>
				<g>
					<path class="st2" d="M73.9,109.3c-6.3,30.8-10.2,68.4,16.2,91.4c4.4,3.8,10.7-2.6,6.4-6.4c-23.8-20.8-19.6-54.9-13.9-82.6
						C83.8,106,75.1,103.6,73.9,109.3L73.9,109.3z"/>
				</g>
				<g>
					<path class="st2" d="M103.2,124.6c12.4,23.5,14.6,51.1,6.5,76.3c-1.8,5.5,6.9,7.9,8.7,2.4c8.9-27.5,6.1-57.7-7.4-83.2
						C108.3,114.9,100.5,119.4,103.2,124.6L103.2,124.6z"/>
				</g>
				<g>
					<path class="st2" d="M110.9,204.4c2,5.2,5.1,9.7,9.5,13.2c1.9,1.5,4.5,1.9,6.4,0c1.6-1.6,1.9-4.8,0-6.4
						c-3.1-2.5-5.7-5.5-7.1-9.3c-0.9-2.3-3-3.8-5.5-3.1C111.8,199.5,110,202.1,110.9,204.4L110.9,204.4z"/>
				</g>
			</g>
		</g>
		<g>
			<defs>
				<rect id="SVGID_11_" width="800" height="200"/>
			</defs>
			<clipPath id="SVGID_12_">
				<use xlink:href="#SVGID_11_"  style="overflow:visible;"/>
			</clipPath>
			<g class="st6">
				<g>
					<path class="st2" d="M704.1,67.3c5.5-22,11-44,16.4-66c-1.4,1.1-2.9,2.2-4.3,3.3c4.5,0.5,9,0.9,13.5,1.4
						c1.5,0.2,5.1-0.2,6.3,0.5c1,0.6-0.3,4.3-0.7,5.9c-1.9,9.1-3.9,18.3-5.8,27.4c-1.8,8.4-4.5,17.1-5.2,25.7
						c-0.6,7.8,4.2,11,9.4,15.5c11.3,9.7,6.5,28.9,4.5,41.5c-2,12.4-4.2,24.8-6.9,37c-3.4,14.9-7.3,29.7-10.8,44.5
						c-1.3,5.6,7.3,8,8.7,2.4c6.6-27.7,13.6-55.1,18-83.2c2.2-14.2,5.9-31.5-3.1-44.2c-1.9-2.7-4.3-4.7-7-6.8
						c-4.7-3.7-3.9-6.7-2.7-12.2c2.1-9.8,4.1-19.5,6.2-29.3c1.2-5.7,2.4-11.3,3.6-17c0.8-3.8,2.4-8.4,0.1-12c-2.2-3.4-6.1-4-9.7-4.4
						c-6.1-0.7-12.2-1.2-18.3-1.8c-1.9-0.2-3.9,1.5-4.3,3.3c-5.5,22-11,44-16.4,66C694,70.5,702.7,72.9,704.1,67.3L704.1,67.3z"/>
				</g>
				<g>
					<path class="st2" d="M700,65.6c-13.9-3.1-23.4,8.6-26.8,20.8c-3.6,13.1-5.5,27-8,40.4c-4.3,23-5.4,45.9-5.3,69.4
						c0,5.8,9,5.8,9,0c-0.1-20.4,0.4-40.7,3.8-60.9c1.8-10.4,3.9-20.8,6-31.2c1.8-9.3,4-33.1,18.9-29.8
						C703.3,75.5,705.7,66.9,700,65.6L700,65.6z"/>
				</g>
				<g>
					<path class="st2" d="M660.2,201.9c16.4,21.6,46.2,25.3,67.5,8.5c4.5-3.6-1.9-9.9-6.4-6.4c-16.4,12.9-40.7,9.9-53.3-6.7
						C664.5,192.8,656.7,197.3,660.2,201.9L660.2,201.9z"/>
				</g>
				<g>
					<path class="st2" d="M676.2,120.9c19.7,11.3,43.6,12,64.1,2.3c5.2-2.5,0.7-10.2-4.5-7.8c-17.5,8.3-38.3,7.3-55-2.3
						C675.7,110.2,671.2,118,676.2,120.9L676.2,120.9z"/>
				</g>
				<g>
					<path class="st2" d="M664.3,177.7c2.1,4.8,6.7,7,11.4,8.9c6.7,2.7,13.7,4.7,20.8,6.1c11,2.1,23.1,3,32-5
						c4.3-3.9-2.1-10.2-6.4-6.4c-6.7,6-17.2,4-25.1,2.3c-4.9-1-9.8-2.4-14.6-4c-3.7-1.3-8.7-2.4-10.4-6.4
						C669.9,167.8,662.1,172.4,664.3,177.7L664.3,177.7z"/>
				</g>
				<g>
					<path class="st2" d="M715.8,16.5c6.6,2.5,13.4,3.9,20.4,4.2c5.8,0.3,5.8-8.7,0-9c-6.2-0.3-12.2-1.7-18-3.9
						C712.8,5.7,710.4,14.4,715.8,16.5L715.8,16.5z"/>
				</g>
			</g>
		</g>
	</g>
</g>
</svg>
