<?xml version="1.0" encoding="utf-8"?>
<!-- Generator: Adobe Illustrator 24.1.0, SVG Export Plug-In . SVG Version: 6.00 Build 0)  -->
<svg version="1.1" id="Ebene_1" xmlns="http://www.w3.org/2000/svg" xmlns:xlink="http://www.w3.org/1999/xlink" x="0px" y="0px"
	 viewBox="0 0 800 200" style="enable-background:new 0 0 800 200;" xml:space="preserve">
<style type="text/css">
	.st0{clip-path:url(#SVGID_2_);fill:#D2DAE2;}
	.st1{clip-path:url(#SVGID_4_);}
	.st2{fill:#FFFFFF;}
	.st3{clip-path:url(#SVGID_6_);}
	.st4{clip-path:url(#SVGID_8_);}
	.st5{clip-path:url(#SVGID_10_);}
</style>
<g id="Ebene_3">
	<g>
		<g>
			<defs>
				<rect id="SVGID_1_" width="800" height="200"/>
			</defs>
			<clipPath id="SVGID_2_">
				<use xlink:href="#SVGID_1_"  style="overflow:visible;"/>
			</clipPath>
			<rect class="st0" width="800" height="200"/>
		</g>
		<g>
			<defs>
				<rect id="SVGID_3_" width="800" height="200"/>
			</defs>
			<clipPath id="SVGID_4_">
				<use xlink:href="#SVGID_3_"  style="overflow:visible;"/>
			</clipPath>
			<g class="st1">
				<path class="st2" d="M702.7,37.8C711,21.2,714.9,2.6,724-13.8c1-1.8,2-3.6,3.3-5.2c0.4-0.5,2.2-2,2.2-2.1c0,0.3-1.3,0.2-1.2,0
					c0,0.2,0.8,1.8,1.1,2.9c2,8.6,0.3,18.6-0.9,27.3c-1.2,8.8-2.8,17.6-4.5,26.3c-0.4,2.1-1.4,4.9-0.7,7.1c0.9,3,4.2,4.3,6.8,5.3
					c8.5,3.4,17.5,5.7,26.2,8.9c4.6,1.7,9.1,3.6,13.3,6.2c1.5,0.9,3,1.9,4.2,3.3c0.2,0.2,0.9,1.4,1.2,1.6c1.8,1.1,0,0.2,0.1,0.2
					c0.1,0.6,0.2,0.7,0.1,0.3c-0.1-0.6,0-1.1,0.3-1.6c-0.2-0.9,1.4-0.3,0-0.3c-0.3,0-0.9,0.4-1.2,0.5c-1.8,0.7-3.8,1.1-5.8,1.5
					c-5,1-10.1,1.6-15.2,2.1c-8.1,0.8-17,0.4-25,2.3c-4.8,1.1-7.6,7.8-10,11.6c-5.2,8.4-10.2,16.8-15.3,25.3
					c-4.3,7.1-8.4,14.3-13.1,21.2c-0.6,0.8-1.1,1.5-1.1,1.4c-0.2-0.2,4.3,0,4.8-0.1c0.4,0,0.2,0.4,0.1,0c-0.1-3.1-0.9-6.1-1-9.3
					c-0.2-10.1,0.5-20.2,0.9-30.2c0.3-7.8,1.5-16.6-0.3-24.3c-1.4-6-8.2-7.7-13.1-10.1c-9.2-4.4-18.5-8.8-26.9-14.6
					c-1.5-1-3-2.1-4.3-3.4c-0.4-0.4-0.9-1.1-1.2-1.3c-1-0.6,0.2-0.9-0.2-0.1c-0.6,1.2,0.3,0.1,1-0.2c1.7-0.7,3.6-1,5.4-1.2
					c10.8-1.2,22,0.4,32.8,1.5c3.9,0.4,7.9,0.9,11.9,1c5.8,0.1,5.8-8.9,0-9c-10.7-0.3-21.2-2.2-31.9-2.7c-7.8-0.3-22.5-1.7-27.1,6.6
					c-4.6,8.2,6.6,15,12.2,18.5c9.2,5.7,19.1,10.3,28.8,15c1.3,0.6,2.6,1.5,3.9,2c1.7,0.6-0.1-0.4-0.1-0.5c-0.2,0.8,0.4,2.3,0.5,3.6
					c0.1,2.1,0.1,4.1,0.1,6.2c-0.1,11.1-0.9,22.1-1.2,33.1c-0.2,7-1.7,18,2.3,24.2c4.8,7.4,10.3,0.1,13.2-4.4
					c10.6-16.4,19.6-33.8,30.6-50c0.3-0.5,0.7-1,1.1-1.5c0.5-0.8,0.2-0.5,0.4-0.5c0,0-2.3,0.6-0.1,0.5c4.4-0.2,8.7-0.7,13.1-1.1
					c10.4-0.9,21.7-1.2,31.7-4.5c3.2-1,7-2.6,7.9-6.2c1-3.8-1.8-7.8-4.3-10.3c-7.5-7.3-19.1-10.8-28.8-14c-4.9-1.6-9.8-3.1-14.7-4.8
					c-1.4-0.5-2.9-1-4.1-1.5c-0.7-0.3-1-0.5-1.1-0.5c0.6-0.5,0,4.3,1,3c1.4-1.7,1.4-7.2,1.8-9.3c0.9-5.1,1.8-10.2,2.6-15.3
					c1.6-10.6,3.4-21.7,2.4-32.5c-0.6-6.4-3.7-16.7-12.3-13.9c-7.8,2.6-12.1,14.5-15.1,21.2C706.7,2,702.8,13,698.7,23.9
					c-1.2,3.2-2.3,6.6-3.6,9.2C692.3,38.5,700.1,43,702.7,37.8L702.7,37.8z"/>
			</g>
		</g>
		<g>
			<defs>
				<rect id="SVGID_5_" width="800" height="200"/>
			</defs>
			<clipPath id="SVGID_6_">
				<use xlink:href="#SVGID_5_"  style="overflow:visible;"/>
			</clipPath>
			<g class="st3">
				<g>
					<path class="st2" d="M107.7,18.2C94.4,17,81.2,15.7,67.8,16C57,16.3,41,16.7,35.3,27.8C22.6,52.3,58.8,61.7,75.6,64.6
						c21.2,3.7,42.8,8.6,64.4,9.3c11.3,0.3,24.7-0.2,33.9-7.6c8-6.4,10.2-17.7,3.2-25.6C168.4,31,153.2,27,141.2,24
						C130.4,21.2,118.9,18.7,107.7,18.2c-5.8-0.3-5.8,8.7,0,9c7.8,0.4,15.6,2,23.2,3.6c10.9,2.3,22.2,5.1,32,10.4
						c6.3,3.4,13,8.7,7.4,16c-5.5,7.2-17.5,7.6-25.6,7.7C124.4,65.1,105,59.8,85,57c-8.5-1.2-17-2.8-25.2-5.5
						c-6.3-2.1-18.2-6.2-18.1-14.5c0.2-12.3,18.2-11.8,26.7-12c13.1-0.3,26.2,1,39.3,2.2C113.5,27.7,113.4,18.7,107.7,18.2
						L107.7,18.2z"/>
				</g>
				<g>
					<path class="st2" d="M32.7,42.7c-2,17-0.7,34.3,0.5,51.3c1.3,18.5,3,36.9,3.1,55.4c0,3.9,0,7.9-0.3,11.8
						c-0.2,3.2-1.5,7.2,0.7,9.9c1.3,1.5,3.3,2.6,4.9,3.8c9,6.2,19.4,10.7,29.9,13.5c20.3,5.3,41.5,3.7,61.3-2.7
						c5.5-1.8,3.1-10.5-2.4-8.7c-21.1,6.8-43.4,7.7-64.4,0.2c-6-2.1-11.9-5-17.3-8.4c-1.6-1-3.2-2.1-4.7-3.3c0.1,0.1-0.2-0.2-1-0.8
						c0.4,1.1,0.9,2.1,1.3,3.2c4.7-41.7-7.7-83.7-2.7-125.3C42.4,37,33.4,37,32.7,42.7L32.7,42.7z"/>
				</g>
				<g>
					<path class="st2" d="M135.9,181.4c4.1-21.5,14.1-41.9,22.6-62c8.2-19.2,17.6-39,20.3-59.9c0.7-5.7-8.3-5.7-9,0
						c-2.7,20.6-12.7,40.6-20.8,59.4c-8.3,19.4-17.8,39.2-21.8,60.1C126.1,184.7,134.8,187.1,135.9,181.4L135.9,181.4z"/>
				</g>
			</g>
		</g>
		<g>
			<defs>
				<rect id="SVGID_7_" width="800" height="200"/>
			</defs>
			<clipPath id="SVGID_8_">
				<use xlink:href="#SVGID_7_"  style="overflow:visible;"/>
			</clipPath>
			<g class="st4">
				<g>
					<path class="st2" d="M234.6,112.7c11.2-15.1,19.5-32.1,30.7-47.2c3.5-4.7-4.3-9.1-7.8-4.5c-11.2,15.1-19.5,32.1-30.7,47.2
						C223.4,112.8,231.2,117.3,234.6,112.7L234.6,112.7z"/>
				</g>
				<g>
					<path class="st2" d="M262.8,63.9c7.4,18.4,14.8,36.8,22.2,55.2c2.1,5.3,10.8,3,8.7-2.4c-7.4-18.4-14.8-36.8-22.2-55.2
						C269.4,56.2,260.7,58.5,262.8,63.9L262.8,63.9z"/>
				</g>
				<g>
					<path class="st2" d="M229.5,114.8c17.6,4.2,35.3,8.4,52.9,12.5c5.6,1.3,8-7.3,2.4-8.7c-17.6-4.2-35.3-8.4-52.9-12.5
						C226.3,104.8,223.9,113.4,229.5,114.8L229.5,114.8z"/>
				</g>
				<g>
					<path class="st2" d="M225.2,112.6c1.3,42.7,3.4,85.4,6.3,128.1c0.4,5.7,9.4,5.8,9,0c-2.9-42.6-5-85.3-6.3-128.1
						C234,106.8,225,106.8,225.2,112.6L225.2,112.6z"/>
				</g>
				<g>
					<path class="st2" d="M282.8,116.5c-5.6,56.2-5,112.9,1.8,169c0.7,5.7,9.7,5.7,9,0c-6.8-56.1-7.4-112.8-1.8-169
						C292.4,110.8,283.4,110.8,282.8,116.5L282.8,116.5z"/>
				</g>
				<g>
					<path class="st2" d="M290.6,122.3c29.1-10.8,60.2-15.6,89.3-26.4c5.4-2,3.1-10.7-2.4-8.7c-29.1,10.8-60.2,15.6-89.3,26.4
						C282.8,115.6,285.2,124.3,290.6,122.3L290.6,122.3z"/>
				</g>
				<g>
					<path class="st2" d="M265.7,68.6c26.9-9.3,53.8-18.6,80.7-27.9c5.4-1.9,3.1-10.6-2.4-8.7c-26.9,9.3-53.8,18.6-80.7,27.9
						C257.9,61.8,260.2,70.5,265.7,68.6L265.7,68.6z"/>
				</g>
				<g>
					<path class="st2" d="M341,37.9c8.6,17.6,19.6,33.9,32.6,48.6c3.8,4.4,10.2-2,6.4-6.4c-12.5-14.2-22.9-29.9-31.2-46.8
						C346.2,28.2,338.4,32.8,341,37.9L341,37.9z"/>
				</g>
				<g>
					<path class="st2" d="M372.3,83.4c1.9,51.2,5,102.3,6.9,153.5c0.2,5.8,9.2,5.8,9,0c-1.9-51.2-5-102.3-6.9-153.5
						C381.1,77.6,372.1,77.6,372.3,83.4L372.3,83.4z"/>
				</g>
				<g>
					<path class="st2" d="M270.4,62.6c0.2-12.3,1.8-24.5,2-36.8c0.1-5.8-8.9-5.8-9,0c-0.2,12.3-1.8,24.5-2,36.8
						C261.3,68.4,270.3,68.4,270.4,62.6L270.4,62.6z"/>
				</g>
				<g>
					<path class="st2" d="M269.2,30.2c24.6-9,50.1-15.6,74.1-26.3c5.3-2.4,0.7-10.1-4.5-7.8c-23.3,10.4-48.1,16.7-72,25.4
						C261.4,23.5,263.7,32.2,269.2,30.2L269.2,30.2z"/>
				</g>
				<g>
					<path class="st2" d="M336.7-1.2c-2.2,12.6,2.4,25.3,4,37.6c0.7,5.7,9.8,5.7,9,0c-1.5-11.2-6.4-23.9-4.4-35.2
						C346.4-4.5,337.7-6.9,336.7-1.2L336.7-1.2z"/>
				</g>
				<g>
					<path class="st2" d="M325.6,136.9c-7.8,18.8-14.2,41.2-12.1,61.7c0.9,9.4,4.7,20.5,15.1,22.8c19.7,4.4,33.5-21,29.9-37.5
						c-3.8-17.5-20.1-29.8-24.2-47.1c-1.3-5.6-10-3.3-8.7,2.4c3.2,13.5,13.3,24.8,19.8,36.7c4.5,8.3,6.6,16.8,1.9,25.5
						c-2.8,5.2-8.2,10.7-14.1,11.3c-7.1,0.7-9.9-7.3-10.7-13.7c-1.1-8.7,0.2-17.9,1.8-26.5c2.1-11.5,5.5-22.6,10-33.4
						C336.5,134,327.8,131.6,325.6,136.9L325.6,136.9z"/>
				</g>
			</g>
		</g>
		<g>
			<defs>
				<rect id="SVGID_9_" width="800" height="200"/>
			</defs>
			<clipPath id="SVGID_10_">
				<use xlink:href="#SVGID_9_"  style="overflow:visible;"/>
			</clipPath>
			<g class="st5">
				<g>
					<path class="st2" d="M449.4,68c30.7-24.4,69.2-37.9,108.3-38.4c5.8-0.1,5.8-9.1,0-9C516,21.1,475.6,35.7,443,61.7
						C438.6,65.3,445,71.6,449.4,68L449.4,68z"/>
				</g>
				<g>
					<path class="st2" d="M554.1,29.7c11.2,14.6,23,28.7,35.5,42.2c1.5-2.5,2.9-5,4.4-7.5c-11.4-3.9-22.3,7.1-19.7,18.5
						c3.1,13.6,18.3,17.8,30.2,13.2c-1.5-0.4-2.9-0.8-4.4-1.2c19,20,38,40,57,60c1.1-2.6,2.1-5.1,3.2-7.7
						c-40-1.1-78.6-12.9-116.2-25.8c-18.4-6.3-37.6-11.9-54.4-21.9c-16.3-9.6-29.8-23-43.3-36.1c-4.1-4-10.5,2.3-6.4,6.4
						c10.7,10.4,21.5,20.8,33.5,29.7c12.5,9.2,26.4,15.7,40.9,21c30.1,11,60.7,21.7,92,28.7c17.7,3.9,35.7,6.5,53.8,7
						c4,0.1,5.8-4.9,3.2-7.7c-19-20-38-40-57-60c-1-1.1-3-1.7-4.4-1.2c-6.3,2.4-14.5,2.7-18.1-4.1c-2.9-5.4,1.3-12.4,7.6-10.2
						c4.5,1.5,7.2-4.4,4.4-7.5c-12-13-23.3-26.4-34.1-40.4C558.4,20.6,550.5,25.1,554.1,29.7L554.1,29.7z"/>
				</g>
				<g>
					<path class="st2" d="M437.6,63.5c-0.4,10.5-0.6,21-0.6,31.4c0,5.2,0.1,10.5,0.2,15.7c0.1,5-0.3,10.7,0.6,15.7
						c0.7,3.9,4.8,5.8,7.8,8c3.7,2.8,7.5,5.5,11.4,8.1c7.9,5.4,16.1,10.5,24.5,15c16.1,8.7,33.4,15.6,51.4,19
						c19.8,3.6,39.9,3.3,59.8,0.6c23-3,45.5-8.9,67.8-14.8c5.6-1.5,3.2-10.2-2.4-8.7c-37.8,10.1-77.4,20.6-116.9,15.1
						c-36.2-5-68-24.6-96.7-46.3c0.7,1.3,1.5,2.6,2.2,3.9c-1-20.9-1-41.8-0.2-62.7C446.8,57.8,437.8,57.8,437.6,63.5L437.6,63.5z"/>
				</g>
				<g>
					<path class="st2" d="M542.4,123.1c-14.3,4.8-17.7,23.5-6,33c12.5,10.2,29.3,2.9,34.9-11c2.2-5.4-6.5-7.7-8.7-2.4
						c-3.1,7.6-12.4,12-19.6,7.1c-6.7-4.5-6.5-15.3,1.7-18.2C550.2,130,547.9,121.3,542.4,123.1L542.4,123.1z"/>
				</g>
				<g>
					<path class="st2" d="M495.7,66.6c-3.1,7.6,5.8,13.3,12.4,13.1c7-0.2,13.7-4.6,15-11.7c1.3-6.8-2.8-13.6-9.8-14.9
						c-7.9-1.5-14.5,3.8-18,10.4c-2.7,5.1,5.1,9.7,7.8,4.5c1.4-2.6,3.3-5.5,6.4-6.1c2.4-0.5,4.7,0.5,4.9,3.1
						c0.2,2.5-1.5,4.4-3.7,5.2c-1.2,0.5-7.1,0.9-6.3-1.2C506.6,63.7,497.9,61.3,495.7,66.6L495.7,66.6z"/>
				</g>
				<g>
					<path class="st2" d="M457.6,131.1c-0.6-5.6,6.9-10.9,12.2-8.7c7.2,3,0,11-4.1,12.6c-5.3,2.1-3,10.8,2.4,8.7
						c5.8-2.3,11.3-6.3,12.9-12.7c1.5-5.6-0.3-12.2-5.2-15.5c-10.7-7.1-28.6,2.5-27.3,15.7C449.2,136.8,458.2,136.9,457.6,131.1
						L457.6,131.1z"/>
				</g>
			</g>
		</g>
	</g>
</g>
</svg>
