<?xml version="1.0" encoding="utf-8"?>
<!-- Generator: Adobe Illustrator 24.1.0, SVG Export Plug-In . SVG Version: 6.00 Build 0)  -->
<svg version="1.1" id="Ebene_1" xmlns="http://www.w3.org/2000/svg" xmlns:xlink="http://www.w3.org/1999/xlink" x="0px" y="0px"
	 viewBox="0 0 800 200" style="enable-background:new 0 0 800 200;" xml:space="preserve">
<style type="text/css">
	.st0{clip-path:url(#SVGID_2_);fill:#AD884C;}
	.st1{clip-path:url(#SVGID_4_);}
	.st2{fill:#FFFFFF;}
	.st3{clip-path:url(#SVGID_6_);}
	.st4{clip-path:url(#SVGID_8_);}
	.st5{clip-path:url(#SVGID_10_);}
	.st6{clip-path:url(#SVGID_12_);}
</style>
<g id="Ebene_3">
	<g>
		<g>
			<defs>
				<rect id="SVGID_1_" width="800" height="200"/>
			</defs>
			<clipPath id="SVGID_2_">
				<use xlink:href="#SVGID_1_"  style="overflow:visible;"/>
			</clipPath>
			<rect class="st0" width="800" height="200"/>
		</g>
		<g>
			<defs>
				<rect id="SVGID_3_" width="800" height="200"/>
			</defs>
			<clipPath id="SVGID_4_">
				<use xlink:href="#SVGID_3_"  style="overflow:visible;"/>
			</clipPath>
			<g class="st1">
				<path class="st2" d="M46.7,52.7c-4.7,14.6-6.5,31.2-4.9,46.4c1.5,14,6.7,30.5,22,34.6c8.1,2.2,17.6,0.4,25.1-3.3
					c7.8-3.8,12.6-11.5,14.8-19.6c5.3-19.5-0.9-42.2-10.1-59.6c-4.9-9.2-12.9-22.5-25.1-21C57.9,31.4,51,42.8,47.2,51.7
					c-2.3,5.3,5.5,9.9,7.8,4.5c2.5-5.8,6.9-15.3,13.8-17c8-1.9,14.5,11.5,17.4,17.2c7.6,14.6,13,33.6,9.4,50.1
					c-1.3,6.2-4.2,12.4-9.9,15.6c-5.5,3.1-13.6,4.7-19.8,2.9c-11.1-3.3-14.2-17.2-15.1-27.3c-1.3-14.2,0.3-29.1,4.7-42.6
					C57.2,49.6,48.5,47.2,46.7,52.7L46.7,52.7z"/>
			</g>
		</g>
		<g>
			<defs>
				<rect id="SVGID_5_" width="800" height="200"/>
			</defs>
			<clipPath id="SVGID_6_">
				<use xlink:href="#SVGID_5_"  style="overflow:visible;"/>
			</clipPath>
			<g class="st3">
				<path class="st2" d="M784.1,67.8c-22.4,13.1-67.2,55.9-33.3,80c7.5,5.3,16.6,8.5,25.8,6.5c8.9-2,16.6-8.2,22.4-14.9
					c7.4-8.5,12.9-18.4,17-28.8c3.7-9.5,6.9-20.7,6.2-31.1C820.6,58.1,798.2,61.1,784.1,67.8c-5.2,2.5-0.7,10.2,4.5,7.8
					c7.9-3.7,23.6-8.7,24.5,4.5c0.6,8.4-2.1,17.6-4.9,25.4c-3.1,8.6-7.5,17.1-13.1,24.4c-4.6,6-10.4,11.9-17.6,14.7
					c-7.2,2.8-13.9,0.8-20.3-3.2c-13-8.1-10.3-21.6-3.2-33c8.3-13.3,21.1-24.9,34.6-32.8C793.7,72.6,789.1,64.8,784.1,67.8
					L784.1,67.8z"/>
			</g>
		</g>
		<g>
			<defs>
				<rect id="SVGID_7_" width="800" height="200"/>
			</defs>
			<clipPath id="SVGID_8_">
				<use xlink:href="#SVGID_7_"  style="overflow:visible;"/>
			</clipPath>
			<g class="st4">
				<g>
					<path class="st2" d="M685,139c-6.1-16.4-9.1-33.7-13.4-50.7c-3.4-13.5-7.4-29.7-18.2-39.4c-9.5-8.5-24.9-10.1-35.8-3.2
						c-11.9,7.5-13.3,22.4-10.9,35c4.2,22.7,18.9,43.1,34.2,59.8c3.9,4.3,10.3-2.1,6.4-6.4c-12.8-14-24.6-30.2-30.1-48.6
						c-2.9-9.6-5.2-24,3.8-31.2c8.1-6.5,20.8-4.8,27.7,2.5c8.7,9.1,11.7,23.3,14.6,35.1c4.1,16.6,7.1,33.4,13.1,49.5
						C678.3,146.8,687,144.5,685,139L685,139z"/>
				</g>
				<g>
					<path class="st2" d="M639.7,136.3c-5.3,17.6-5.5,36.4-0.5,54.1c3.9,13.6,10.9,27.7,22.2,36.6c9,7.1,20.7,9,30.6,2.5
						c10.7-7,13.5-20.8,13-32.8c-0.9-20.9-9.7-41.1-20.5-58.7c-3-4.9-10.8-0.4-7.8,4.5c8.5,13.9,15.4,29,18.2,45.1
						c1.8,10,2.5,23.3-4.6,31.5c-6.1,7.1-15.7,6.7-22.7,1.4c-9.4-7-15.4-18.8-18.9-29.8c-5.4-17-5.5-35.1-0.4-52.1
						C650.1,133.1,641.4,130.7,639.7,136.3L639.7,136.3z"/>
				</g>
				<g>
					<path class="st2" d="M647.2,40.5c2.5-6.3,7.1-17.6-0.8-22.2c-5.7-3.3-14.2-1.2-20,0.6c-5.6,1.8-14,4.8-16.2,10.9
						c-3,8.3,9.5,14.5,14.8,18.4c4.7,3.4,9.2-4.4,4.5-7.8c-3-2.2-6.2-4.1-8.9-6.6c-0.9-0.8-1.6-2.4-1.9-1.4c-0.3,0.8,0.2,0.2,0.4,0
						c3.1-2.5,6.8-4,10.6-5.1c2.8-0.8,8.7-2.9,11.5-1.4c0.9,0.5,0.4-0.2,0.6,1.4c0.3,3.4-2.1,7.8-3.3,10.8
						C636.4,43.5,645.1,45.8,647.2,40.5L647.2,40.5z"/>
				</g>
			</g>
		</g>
		<g>
			<defs>
				<rect id="SVGID_9_" width="800" height="200"/>
			</defs>
			<clipPath id="SVGID_10_">
				<use xlink:href="#SVGID_9_"  style="overflow:visible;"/>
			</clipPath>
			<g class="st5">
				<g>
					<path class="st2" d="M174.2,210.7c-1.1-33.2-3.3-66.4-6.5-99.5c-0.6-5.7-9.6-5.8-9,0c3.2,33.1,5.4,66.2,6.5,99.5
						C165.4,216.5,174.4,216.5,174.2,210.7L174.2,210.7z"/>
				</g>
				<g>
					<path class="st2" d="M163.1,107.5c-5.3-0.5-17.1-2-15.9-9.7c1.2-8,13.1-11.2,19.6-12.2c18.2-2.7,36.7,2.9,55,0.7
						c19.5-2.3,38.3-5.5,57.9-1.8c5.3,1,16,3.8,14.4,11.3c-2.3,10.5-16.4,6.9-23,4.1c-5.3-2.2-7.7,6.5-2.4,8.7
						c8,3.4,17.6,5.2,25.5,0.5c6.3-3.7,10.5-11.1,8.5-18.4c-4.4-16.4-29.7-16.8-42.9-17c-10.4-0.2-20.6,1.1-30.9,2.7
						c-10.4,1.6-20.5,2.1-31.1,1.2c-17.4-1.4-39.3-4.9-53.5,8.2c-6.1,5.7-8.7,14.8-3.2,21.9c5.1,6.6,14.2,8.1,21.9,8.9
						C168.8,117.1,168.8,108.1,163.1,107.5L163.1,107.5z"/>
				</g>
				<g>
					<path class="st2" d="M270.6,109.2c3.6,32.8,5.4,65.8,5.2,98.8c0,5.8,9,5.8,9,0c0.2-33-1.6-66-5.2-98.8
						C278.9,103.5,269.9,103.4,270.6,109.2L270.6,109.2z"/>
				</g>
				<g>
					<path class="st2" d="M189,85.8c23.7-6.3,47.3-12.9,70.2-21.7s45.2-19.2,67.6-29.1c5.3-2.3,0.7-10.1-4.5-7.8
						c-22.1,9.7-44,20-66.5,28.6S210,70.9,186.7,77.1C181.1,78.6,183.4,87.3,189,85.8L189,85.8z"/>
				</g>
				<g>
					<path class="st2" d="M360.9,21.8c20.7,9.1,42.1,3.9,63.8,3.4c9.7-0.2,20.1,1.5,27.2,8.9c4.8,5.1,4.8,12.1-1.5,15.8
						c-5.8,3.4-13.3,2.1-19.6,1.3c-5.7-0.7-5.7,8.3,0,9c12.5,1.6,30.7,0.7,33.5-15c2.4-13.4-10.6-23.2-21.8-26.9
						c-11.2-3.6-23.7-1.8-35.1-0.8c-13.9,1.2-28.6,2.3-41.8-3.4C360.1,11.7,355.6,19.5,360.9,21.8L360.9,21.8z"/>
				</g>
				<g>
					<path class="st2" d="M434.2,57c-5.6,15.1-9.5,30.6-11.5,46.7s-2.2,32.3-2.7,48.4c-0.2,5.8,8.8,5.8,9,0
						c0.5-15.6,0.8-31.3,2.6-46.9c1.8-15.7,5.9-31,11.4-45.8C444.9,54,436.2,51.6,434.2,57L434.2,57z"/>
				</g>
				<g>
					<path class="st2" d="M319.5,104.1c25.6-12.5,52.3-22.5,79.8-29.9c5.6-1.5,3.2-10.2-2.4-8.7c-28.3,7.6-55.7,17.9-81.9,30.8
						C309.7,98.9,314.3,106.7,319.5,104.1L319.5,104.1z"/>
				</g>
				<g>
					<path class="st2" d="M283.8,213.3c13.4-0.4,25.4-6.1,37.4-11.4c12-5.3,23.9-10.5,35.9-15.7c23.2-10,46.4-20.1,69.5-30.2
						c5.3-2.3,0.7-10.1-4.5-7.8c-22.1,9.8-44.4,19.3-66.6,29c-10.9,4.7-21.9,9.5-32.8,14.3c-12.4,5.4-25.1,12.4-38.9,12.8
						C278.1,204.5,278,213.5,283.8,213.3L283.8,213.3z"/>
				</g>
				<g>
					<path class="st2" d="M325.4,33c6.4-13.7,22.3-19,35.5-11.2c5,2.9,9.5-4.8,4.5-7.8c-17.1-10.1-39.3-3.7-47.8,14.4
						C315.1,33.7,322.9,38.2,325.4,33L325.4,33z"/>
				</g>
			</g>
		</g>
		<g>
			<defs>
				<rect id="SVGID_11_" width="800" height="200"/>
			</defs>
			<clipPath id="SVGID_12_">
				<use xlink:href="#SVGID_11_"  style="overflow:visible;"/>
			</clipPath>
			<g class="st6">
				<path class="st2" d="M517.1,97.4c0-12.3-2.9-24.4-2.4-36.7c0-0.8,0.8-5.6,0.9-5.5c0.2,0.2-2.6,1.6-2.5,0.9c0,0,1,1.1,1.3,1.6
					c3.6,5.2,5.6,11.8,7.5,17.9c1.7,5.2,3.1,10.5,4.6,15.8c1.2,4.2,3.5,5.9,7.9,5.7c6.2-0.3,12.3-1.8,18.4-2.3
					c3.1-0.3,6.2-0.5,9.3-0.3c1.2,0.1,2.4,0.5,3.5,0.6c0.3,0,0.5,0.3,0.8,0.3c0.1,0.1,0.3,0.3,0.4,0.4c0.3-3.5,0.1-4.5-0.7-3.1
					c-1,0.3-3.8,3.2-5,4.1c-2.8,1.9-5.6,3.7-8.5,5.4c-4.1,2.5-9.8,4.6-13.1,8.1c-2.5,2.6-2.2,7.6-2.6,11c-0.6,6.3-1.1,12.6-1.7,18.9
					c-0.4,5.1-1.4,11.3-1.6,15.9c0,0.5-0.4,1.2-0.3,1.6c0.4,1.6,5.2-3.5,5.2-2.3c0-0.2,0.2,0.7,0.1-0.1c-0.4-1.5-2.6-4.2-3.4-5.9
					c-2.9-5.9-5.4-12-8.1-18c-2-4.6-3.9-10.3-7.3-14.1c-3.1-3.4-8-2.5-12.1-2.4c-7,0-14.5,0.4-21.4-1.1c-0.7-0.2-2.3-0.6-2.4-0.6
					c-0.1,0.1,2.9,3.7,0.4,2c0.1,0-0.1-0.4,0.3-0.4c0.8,0,3-2.2,3.8-2.7c1.8-1,3.7-1.9,5.6-2.8c6.7-3,13.9-5,20.6-8
					c5.3-2.4,0.7-10.1-4.5-7.8c-6.9,3.1-14.2,5.2-21.1,8.3c-5.1,2.3-13.8,6.2-13.7,13c0.1,6.9,8.5,7.9,13.7,8.5
					c7.2,0.8,14.4,0.6,21.6,0.6c1,0,2.1,0.2,3,0c2.6-0.4-1.2,0.3-0.8-0.6c-0.1,0.2,2.7,4.9,3.3,6c3.2,6.8,6,13.8,9.1,20.6
					c2,4.3,4.3,11.1,8.8,13.5c5.8,3,7.9-2.9,8.4-7.3c1.6-12.8,1.8-26.4,3.7-38.7c0-0.3,0.5-1.9,0.4-2c0.6,0.8-2.9,2.3-0.3,1.1
					c2.8-1.3,5.5-3.3,8.2-4.9c6-3.6,12.7-7.1,17.6-12.2c4.6-4.9,2.6-10.5-3.5-12.7c-6.7-2.4-14.7-1.1-21.6-0.2
					c-3.4,0.4-6.7,1-10,1.4c-1.1,0.1-2.7,0-3.8,0.3c-0.6,0.2-0.7,0.1-0.6,0c0.9-1.1,2.6,4.3,2.7,2.1c0.1-1.8-1.2-4.5-1.7-6.3
					c-1-3.6-2-7.2-3.2-10.7c-2.4-7.4-4.8-16-9.9-22c-4.2-4.9-11.2-5.3-13.7,1.4c-2.6,7.1-1.3,16.1-0.8,23.5
					c0.5,7.1,1.9,14.2,1.9,21.3C508.1,103.2,517.1,103.2,517.1,97.4L517.1,97.4z"/>
			</g>
		</g>
	</g>
</g>
</svg>
